<svg xmlns="http://www.w3.org/2000/svg" xmlns:xlink="http://www.w3.org/1999/xlink" width="500" zoomAndPan="magnify" viewBox="0 0 375 374.999991" height="500" preserveAspectRatio="xMidYMid meet" version="1.0"><defs><g/><clipPath id="id1"><path d="M 182 30 L 331.519531 30 L 331.519531 108 L 182 108 Z M 182 30 " clip-rule="nonzero"/></clipPath><clipPath id="id2"><path d="M 181.519531 57 L 321 57 L 321 128 L 181.519531 128 Z M 181.519531 57 " clip-rule="nonzero"/></clipPath><clipPath id="id3"><path d="M 63.289062 27.414062 L 311.539062 27.414062 L 311.539062 271 L 63.289062 271 Z M 63.289062 27.414062 " clip-rule="nonzero"/></clipPath></defs><g clip-path="url(#id1)"><path fill="#ff9934" d="M 182.859375 107.089844 C 183.292969 100.578125 183.726562 94.070312 184.15625 87.558594 C 209.214844 91.316406 218.257812 86.886719 221.617188 81.660156 C 226.011719 74.828125 220.671875 66.675781 226.988281 58.828125 C 231.097656 53.714844 238.78125 50.433594 245.5 51.566406 C 254.484375 53.085938 255.214844 61.394531 263.972656 62.398438 C 271.839844 63.28125 278.386719 57.410156 280.351562 55.675781 C 287.257812 49.496094 285.550781 42.945312 289.332031 37.695312 C 293.296875 32.269531 303.320312 27.414062 331.492188 32.761719 C 329.546875 38.136719 327.617188 43.511719 325.699219 48.894531 C 315.023438 46.140625 300.792969 44.078125 294.230469 51.457031 C 290.828125 55.285156 292.730469 58.625 288.765625 64.308594 C 281.550781 74.632812 268.464844 79.175781 255.980469 76.925781 C 250.832031 75.980469 252.632812 68.511719 248.585938 67.402344 C 243.722656 66.074219 238 72.640625 236.382812 74.5 C 228.671875 83.34375 229.816406 90.824219 226.308594 96.738281 C 222.472656 103.164062 212.128906 109.339844 182.859375 107.089844 Z M 182.859375 107.089844 " fill-opacity="1" fill-rule="nonzero"/></g><g clip-path="url(#id2)"><path fill="#138807" d="M 304.933594 58.109375 C 311.433594 57.164062 317.1875 60.304688 320.703125 62.785156 C 318.402344 69.21875 316.101562 75.652344 313.804688 82.078125 C 308.3125 78.574219 300.28125 74.6875 293.445312 77.496094 C 287.773438 79.832031 288.046875 84.039062 282.539062 87.902344 C 269.902344 96.726562 253.882812 83.480469 245.441406 91.308594 C 240.242188 96.144531 245.292969 102.164062 239.5625 111.101562 C 234.226562 119.390625 224.800781 122.085938 215.164062 124.839844 C 209.699219 126.378906 204.132812 127.335938 198.464844 127.707031 C 192.800781 128.082031 187.15625 127.867188 181.535156 127.058594 C 181.808594 123.070312 182.085938 119.078125 182.363281 115.089844 C 189.453125 113.699219 204.042969 110.492188 216.875 104.828125 C 220.242188 103.34375 224.046875 101.433594 227.652344 97.648438 C 230.875 94.210938 233.171875 90.238281 234.542969 85.726562 C 235.40625 83.195312 237.105469 79.515625 240.664062 77.210938 C 249.527344 71.480469 258.351562 81.867188 271.730469 78.058594 C 273.25 77.628906 279.949219 73.164062 293.355469 64.242188 C 297.890625 61.195312 300.488281 58.757812 304.933594 58.109375 Z M 304.933594 58.109375 " fill-opacity="1" fill-rule="nonzero"/></g><path fill="#ffffff" d="M 182.167969 117.527344 C 182.453125 113.222656 182.738281 108.914062 183.023438 104.605469 C 186.875 104.761719 220.707031 105.824219 226.421875 92.6875 C 228.183594 88.617188 229.417969 84.390625 230.121094 80.011719 C 231.023438 73.203125 229.761719 69.996094 232.425781 66.902344 C 235.410156 63.433594 240.5 63.371094 241.027344 63.375 C 241.75 63.375 244.023438 63.457031 247.527344 65.269531 C 252.558594 67.847656 254.015625 70.832031 256.371094 72.664062 C 264.0625 78.660156 283.082031 73.71875 288.839844 62.917969 C 291.679688 57.570312 289.230469 54.652344 291.769531 50.617188 C 294.917969 45.621094 303.75 42.140625 326.753906 45.992188 C 324.4375 52.398438 322.125 58.796875 319.816406 65.199219 C 315.085938 63.230469 308.109375 60.988281 301.21875 61.457031 C 299.835938 61.488281 298.523438 61.800781 297.277344 62.402344 C 293.0625 64.554688 292.90625 69.175781 290.65625 73.378906 C 287.011719 80.214844 278.96875 83.839844 273.3125 84.667969 C 268.929688 85.3125 261.878906 84.878906 255.84375 81.328125 C 252.765625 79.515625 249.746094 76.761719 245.679688 77.382812 C 244.203125 77.625 242.867188 78.203125 241.679688 79.113281 C 235.53125 83.621094 238.398438 93.332031 234.671875 101.375 C 227.300781 117.300781 198.011719 118.3125 195.023438 118.40625 C 190.707031 118.5625 186.421875 118.269531 182.167969 117.527344 Z M 182.167969 117.527344 " fill-opacity="1" fill-rule="nonzero"/><path fill="#eed201" d="M 206.199219 113.945312 L 206.15625 113.886719 C 206.144531 113.867188 206.128906 113.851562 206.109375 113.835938 C 206.078125 113.800781 206.039062 113.769531 205.992188 113.75 C 205.960938 113.734375 205.925781 113.71875 205.894531 113.707031 C 205.855469 113.707031 205.816406 113.707031 205.78125 113.707031 C 205.667969 113.699219 205.570312 113.722656 205.476562 113.785156 C 205.4375 113.808594 205.402344 113.839844 205.371094 113.875 C 205.328125 113.929688 205.292969 113.992188 205.269531 114.058594 C 205.253906 114.105469 205.242188 114.152344 205.242188 114.199219 C 205.234375 114.25 205.234375 114.296875 205.242188 114.347656 C 205.25 114.398438 205.265625 114.445312 205.292969 114.488281 C 205.3125 114.535156 205.34375 114.578125 205.382812 114.613281 C 205.484375 114.707031 205.601562 114.753906 205.742188 114.753906 C 205.792969 114.761719 205.84375 114.761719 205.898438 114.753906 C 205.964844 114.730469 206.027344 114.695312 206.082031 114.644531 C 206.117188 114.613281 206.148438 114.582031 206.175781 114.539062 C 206.199219 114.496094 206.21875 114.453125 206.234375 114.402344 C 206.257812 114.308594 206.257812 114.210938 206.234375 114.113281 C 206.230469 114.058594 206.21875 114 206.199219 113.945312 Z M 251.980469 91.476562 L 251.9375 91.417969 C 251.925781 91.398438 251.910156 91.382812 251.890625 91.367188 C 251.855469 91.332031 251.816406 91.304688 251.773438 91.28125 C 251.742188 91.265625 251.707031 91.25 251.675781 91.238281 L 251.5625 91.238281 C 251.449219 91.230469 251.351562 91.253906 251.257812 91.316406 C 251.21875 91.339844 251.1875 91.371094 251.152344 91.40625 C 251.109375 91.460938 251.074219 91.523438 251.050781 91.589844 C 251.035156 91.636719 251.023438 91.683594 251.023438 91.730469 C 251.015625 91.78125 251.015625 91.828125 251.023438 91.878906 C 251.027344 91.929688 251.046875 91.976562 251.074219 92.019531 C 251.09375 92.066406 251.125 92.109375 251.164062 92.144531 C 251.265625 92.238281 251.382812 92.285156 251.523438 92.285156 C 251.574219 92.292969 251.628906 92.292969 251.679688 92.285156 C 251.746094 92.261719 251.808594 92.226562 251.863281 92.179688 C 251.898438 92.148438 251.929688 92.113281 251.957031 92.070312 C 251.980469 92.03125 252 91.984375 252.015625 91.941406 C 252.039062 91.839844 252.039062 91.742188 252.015625 91.644531 C 252.011719 91.589844 252 91.53125 251.980469 91.476562 Z M 246.78125 102.484375 C 246.769531 102.464844 246.757812 102.445312 246.742188 102.429688 L 246.695312 102.371094 C 246.660156 102.335938 246.621094 102.308594 246.578125 102.285156 L 246.472656 102.25 L 246.359375 102.25 C 246.253906 102.246094 246.152344 102.269531 246.0625 102.324219 C 246.023438 102.351562 245.984375 102.382812 245.953125 102.417969 C 245.910156 102.472656 245.875 102.535156 245.847656 102.597656 C 245.835938 102.648438 245.828125 102.695312 245.824219 102.746094 C 245.820312 102.792969 245.820312 102.839844 245.824219 102.886719 C 245.839844 102.9375 245.855469 102.988281 245.878906 103.035156 C 245.902344 103.078125 245.933594 103.117188 245.972656 103.152344 C 246.070312 103.25 246.1875 103.296875 246.328125 103.292969 C 246.457031 103.296875 246.574219 103.253906 246.671875 103.167969 C 246.707031 103.136719 246.738281 103.101562 246.761719 103.058594 C 246.789062 103.019531 246.808594 102.972656 246.820312 102.925781 C 246.84375 102.828125 246.84375 102.734375 246.820312 102.636719 C 246.816406 102.582031 246.804688 102.53125 246.78125 102.480469 Z M 190.988281 123.09375 L 190.988281 123.035156 L 190.941406 122.976562 C 190.90625 122.945312 190.867188 122.914062 190.824219 122.890625 L 190.71875 122.855469 L 190.605469 122.855469 C 190.5 122.84375 190.398438 122.871094 190.308594 122.929688 C 190.269531 122.953125 190.230469 122.984375 190.199219 123.019531 C 190.15625 123.074219 190.121094 123.136719 190.097656 123.203125 C 190.082031 123.25 190.074219 123.296875 190.074219 123.347656 C 190.066406 123.394531 190.066406 123.445312 190.074219 123.492188 C 190.082031 123.542969 190.101562 123.589844 190.125 123.632812 C 190.148438 123.679688 190.179688 123.71875 190.214844 123.757812 C 190.316406 123.847656 190.4375 123.894531 190.574219 123.894531 C 190.707031 123.898438 190.820312 123.855469 190.917969 123.765625 C 190.953125 123.734375 190.984375 123.699219 191.007812 123.65625 C 191.039062 123.617188 191.058594 123.574219 191.066406 123.527344 C 191.09375 123.429688 191.09375 123.332031 191.066406 123.238281 C 191.058594 123.1875 191.046875 123.136719 191.023438 123.089844 Z M 198.816406 114.328125 L 196.75 114.328125 C 196.75 113.683594 196.75 113.035156 196.75 112.386719 C 196.761719 112.28125 196.742188 112.183594 196.683594 112.09375 C 196.625 112.003906 196.542969 111.945312 196.441406 111.914062 C 196.308594 111.878906 196.1875 111.902344 196.078125 111.988281 C 195.964844 112.070312 195.910156 112.183594 195.910156 112.320312 C 195.886719 112.675781 195.910156 113.042969 195.910156 113.402344 L 195.910156 114.304688 C 195.265625 114.304688 194.617188 114.28125 193.972656 114.304688 C 193.867188 114.292969 193.769531 114.3125 193.679688 114.371094 C 193.59375 114.429688 193.53125 114.511719 193.5 114.613281 C 193.464844 114.746094 193.488281 114.867188 193.574219 114.976562 C 193.65625 115.085938 193.769531 115.140625 193.90625 115.140625 C 194.261719 115.140625 194.628906 115.140625 194.984375 115.140625 L 195.90625 115.140625 C 195.90625 115.789062 195.90625 116.4375 195.90625 117.082031 C 195.890625 117.1875 195.914062 117.285156 195.972656 117.375 C 196.03125 117.464844 196.109375 117.527344 196.214844 117.554688 C 196.347656 117.589844 196.46875 117.566406 196.578125 117.480469 C 196.6875 117.398438 196.742188 117.285156 196.742188 117.148438 C 196.742188 116.789062 196.742188 116.425781 196.742188 116.070312 L 196.742188 115.160156 L 198.109375 115.160156 C 198.3125 115.160156 198.527344 115.160156 198.730469 115.160156 C 199.210938 115.132812 199.3125 114.402344 198.816406 114.328125 Z M 284.898438 90.441406 C 284.878906 90.4375 284.859375 90.4375 284.839844 90.441406 L 282.851562 90.441406 C 282.851562 89.796875 282.875 89.148438 282.851562 88.5 C 282.863281 88.394531 282.84375 88.296875 282.785156 88.207031 C 282.726562 88.117188 282.644531 88.058594 282.542969 88.027344 C 282.410156 87.992188 282.289062 88.015625 282.179688 88.097656 C 282.070312 88.183594 282.015625 88.296875 282.015625 88.433594 C 282.015625 88.789062 282.015625 89.152344 282.015625 89.511719 L 282.015625 90.414062 C 281.367188 90.414062 280.71875 90.414062 280.074219 90.414062 C 279.96875 90.402344 279.871094 90.425781 279.785156 90.484375 C 279.695312 90.542969 279.632812 90.621094 279.601562 90.722656 C 279.566406 90.855469 279.589844 90.980469 279.675781 91.089844 C 279.757812 91.199219 279.871094 91.253906 280.007812 91.253906 C 280.367188 91.253906 280.734375 91.253906 281.09375 91.253906 L 281.996094 91.253906 C 281.996094 91.902344 281.996094 92.550781 281.996094 93.191406 C 281.980469 93.300781 282.003906 93.398438 282.0625 93.488281 C 282.121094 93.574219 282.199219 93.636719 282.300781 93.667969 C 282.4375 93.703125 282.558594 93.679688 282.667969 93.59375 C 282.777344 93.507812 282.832031 93.398438 282.832031 93.257812 C 282.832031 92.90625 282.832031 92.535156 282.832031 92.179688 L 282.832031 91.273438 L 284.199219 91.273438 C 284.40625 91.273438 284.613281 91.273438 284.824219 91.273438 C 285.300781 91.234375 285.398438 90.53125 284.898438 90.441406 Z M 247.480469 49.839844 L 247.417969 49.875 C 247.398438 49.886719 247.375 49.898438 247.359375 49.914062 C 247.320312 49.949219 247.289062 49.984375 247.261719 50.023438 L 247.214844 50.125 C 247.214844 50.160156 247.214844 50.199219 247.214844 50.238281 C 247.195312 50.34375 247.210938 50.445312 247.261719 50.539062 C 247.285156 50.582031 247.3125 50.621094 247.34375 50.652344 C 247.394531 50.703125 247.453125 50.746094 247.519531 50.777344 C 247.5625 50.792969 247.613281 50.808594 247.660156 50.816406 C 247.707031 50.820312 247.753906 50.820312 247.800781 50.816406 C 247.855469 50.808594 247.90625 50.796875 247.953125 50.777344 C 248 50.757812 248.042969 50.730469 248.082031 50.695312 C 248.183594 50.601562 248.238281 50.488281 248.25 50.351562 C 248.261719 50.296875 248.261719 50.242188 248.25 50.191406 C 248.234375 50.117188 248.207031 50.054688 248.160156 49.996094 C 248.132812 49.957031 248.101562 49.925781 248.0625 49.898438 C 248.023438 49.867188 247.980469 49.84375 247.933594 49.824219 C 247.84375 49.792969 247.746094 49.78125 247.652344 49.796875 C 247.589844 49.800781 247.535156 49.816406 247.480469 49.839844 Z M 259.390625 57.503906 L 259.332031 57.542969 C 259.3125 57.550781 259.289062 57.566406 259.273438 57.582031 C 259.234375 57.613281 259.203125 57.652344 259.175781 57.695312 C 259.15625 57.722656 259.140625 57.753906 259.128906 57.789062 C 259.117188 57.828125 259.109375 57.863281 259.101562 57.902344 C 259.085938 58.007812 259.105469 58.109375 259.152344 58.207031 C 259.175781 58.25 259.203125 58.289062 259.234375 58.324219 C 259.285156 58.375 259.34375 58.414062 259.410156 58.441406 C 259.453125 58.460938 259.5 58.472656 259.546875 58.480469 C 259.59375 58.488281 259.644531 58.488281 259.691406 58.480469 C 259.746094 58.476562 259.792969 58.464844 259.839844 58.441406 C 259.886719 58.421875 259.933594 58.394531 259.972656 58.363281 C 260.074219 58.269531 260.128906 58.152344 260.140625 58.015625 C 260.152344 57.960938 260.152344 57.910156 260.140625 57.855469 C 260.125 57.785156 260.097656 57.722656 260.050781 57.664062 C 260.027344 57.625 259.992188 57.589844 259.953125 57.5625 C 259.914062 57.53125 259.871094 57.511719 259.824219 57.496094 C 259.730469 57.460938 259.636719 57.449219 259.535156 57.460938 C 259.488281 57.472656 259.4375 57.484375 259.390625 57.503906 Z M 256.628906 46.597656 C 256.625 46.617188 256.625 46.636719 256.628906 46.65625 L 256.453125 48.636719 C 255.8125 48.578125 255.167969 48.5 254.519531 48.46875 C 254.289062 48.433594 254.132812 48.523438 254.046875 48.738281 C 254.003906 48.867188 254.015625 48.992188 254.089844 49.105469 C 254.164062 49.222656 254.269531 49.289062 254.40625 49.300781 C 254.761719 49.351562 255.125 49.363281 255.484375 49.394531 L 256.382812 49.476562 C 256.320312 50.121094 256.246094 50.761719 256.214844 51.40625 C 256.175781 51.632812 256.265625 51.792969 256.476562 51.878906 C 256.609375 51.925781 256.730469 51.914062 256.847656 51.839844 C 256.964844 51.765625 257.03125 51.65625 257.046875 51.519531 C 257.097656 51.167969 257.105469 50.800781 257.140625 50.445312 L 257.214844 49.546875 C 257.859375 49.609375 258.507812 49.679688 259.148438 49.710938 C 259.378906 49.753906 259.535156 49.664062 259.621094 49.449219 C 259.667969 49.316406 259.65625 49.195312 259.582031 49.078125 C 259.507812 48.960938 259.402344 48.898438 259.261719 48.882812 C 258.90625 48.832031 258.542969 48.824219 258.191406 48.789062 L 257.285156 48.710938 L 257.40625 47.347656 C 257.40625 47.144531 257.457031 46.929688 257.460938 46.726562 C 257.460938 46.273438 256.746094 46.105469 256.628906 46.597656 Z M 315.503906 36.457031 C 315.492188 36.433594 315.476562 36.414062 315.460938 36.398438 C 315.445312 36.378906 315.429688 36.359375 315.414062 36.34375 C 315.378906 36.304688 315.339844 36.277344 315.292969 36.257812 L 315.195312 36.21875 L 315.082031 36.21875 C 314.972656 36.210938 314.875 36.238281 314.785156 36.292969 C 314.742188 36.320312 314.707031 36.351562 314.675781 36.390625 C 314.628906 36.441406 314.59375 36.503906 314.570312 36.570312 C 314.554688 36.617188 314.546875 36.664062 314.542969 36.714844 C 314.535156 36.761719 314.535156 36.808594 314.542969 36.859375 C 314.554688 36.910156 314.570312 36.957031 314.59375 37.003906 C 314.617188 37.050781 314.648438 37.089844 314.683594 37.121094 C 314.785156 37.21875 314.90625 37.265625 315.042969 37.265625 C 315.097656 37.265625 315.148438 37.257812 315.199219 37.242188 C 315.269531 37.21875 315.328125 37.183594 315.382812 37.136719 C 315.421875 37.105469 315.453125 37.070312 315.480469 37.027344 C 315.5 36.984375 315.519531 36.941406 315.535156 36.894531 C 315.5625 36.800781 315.5625 36.703125 315.535156 36.605469 C 315.535156 36.554688 315.523438 36.503906 315.503906 36.457031 Z M 310.316406 48.894531 C 310.304688 48.875 310.292969 48.855469 310.277344 48.835938 L 310.230469 48.78125 C 310.195312 48.746094 310.15625 48.71875 310.113281 48.695312 L 310.007812 48.65625 C 309.972656 48.652344 309.933594 48.652344 309.894531 48.65625 C 309.789062 48.648438 309.6875 48.671875 309.597656 48.734375 C 309.558594 48.757812 309.523438 48.785156 309.492188 48.824219 C 309.445312 48.875 309.40625 48.9375 309.382812 49.007812 C 309.371094 49.054688 309.363281 49.101562 309.359375 49.148438 C 309.355469 49.199219 309.355469 49.246094 309.359375 49.296875 C 309.375 49.34375 309.390625 49.390625 309.414062 49.4375 C 309.4375 49.484375 309.46875 49.523438 309.507812 49.5625 C 309.605469 49.65625 309.726562 49.699219 309.863281 49.699219 C 309.992188 49.699219 310.109375 49.65625 310.207031 49.570312 C 310.242188 49.539062 310.273438 49.503906 310.296875 49.460938 C 310.324219 49.421875 310.34375 49.378906 310.359375 49.328125 C 310.382812 49.234375 310.382812 49.136719 310.359375 49.039062 C 310.351562 48.988281 310.339844 48.941406 310.316406 48.894531 Z M 320.367188 49.277344 L 318.300781 49.277344 C 318.300781 48.628906 318.300781 47.980469 318.300781 47.335938 C 318.316406 47.230469 318.296875 47.132812 318.238281 47.042969 C 318.179688 46.953125 318.101562 46.894531 318 46.863281 C 317.867188 46.832031 317.746094 46.855469 317.636719 46.941406 C 317.527344 47.023438 317.472656 47.132812 317.46875 47.269531 C 317.445312 47.628906 317.46875 47.996094 317.46875 48.355469 L 317.46875 49.257812 C 316.820312 49.257812 316.175781 49.257812 315.53125 49.257812 C 315.425781 49.246094 315.328125 49.265625 315.238281 49.324219 C 315.148438 49.382812 315.089844 49.464844 315.058594 49.566406 C 315.023438 49.699219 315.046875 49.820312 315.132812 49.929688 C 315.214844 50.039062 315.328125 50.097656 315.464844 50.097656 C 315.820312 50.097656 316.1875 50.097656 316.542969 50.097656 L 317.445312 50.097656 C 317.445312 50.742188 317.445312 51.390625 317.445312 52.035156 C 317.429688 52.140625 317.453125 52.238281 317.511719 52.328125 C 317.570312 52.417969 317.648438 52.480469 317.753906 52.507812 C 317.886719 52.542969 318.007812 52.519531 318.113281 52.433594 C 318.222656 52.347656 318.277344 52.238281 318.277344 52.101562 C 318.300781 51.742188 318.277344 51.378906 318.277344 51.019531 L 318.277344 50.089844 L 319.648438 50.089844 C 319.851562 50.089844 320.066406 50.089844 320.269531 50.089844 C 320.765625 50.0625 320.863281 49.339844 320.367188 49.261719 Z M 320.367188 49.277344 " fill-opacity="1" fill-rule="nonzero"/><path fill="#192a3e" d="M 278.703125 85.15625 L 224.171875 44.289062 C 222.710938 43.203125 221.117188 42.382812 219.386719 41.832031 C 199.351562 27.21875 174.898438 27.78125 148.53125 46.335938 L 92.84375 85.53125 C 91.367188 86.585938 90.101562 87.851562 89.042969 89.324219 C 68.945312 103.875 61.914062 127.265625 71.414062 158.082031 L 91.488281 223.183594 C 92.019531 224.925781 92.828125 226.527344 93.914062 227.992188 C 101.53125 251.570312 121.613281 265.457031 153.855469 265.988281 L 221.960938 267.011719 C 223.785156 267.046875 225.5625 266.785156 227.300781 266.230469 C 252.074219 266.230469 271.523438 251.46875 281.933594 220.960938 L 303.976562 156.449219 C 304.558594 154.730469 304.847656 152.964844 304.839844 151.152344 C 312.535156 127.570312 304.457031 104.515625 278.703125 85.15625 Z M 275.355469 153.75 L 275.183594 154.054688 C 274.207031 155.777344 273.125 157.433594 271.9375 159.019531 C 264.621094 168.757812 255.460938 173.785156 245.398438 173.785156 C 241.371094 173.746094 237.46875 173.027344 233.691406 171.625 L 227.933594 169.53125 L 232.265625 165.199219 C 233.367188 164.085938 234.21875 162.808594 234.824219 161.359375 C 235.425781 159.914062 235.730469 158.40625 235.746094 156.839844 C 235.777344 155.679688 235.644531 154.542969 235.339844 153.421875 C 235.039062 152.300781 234.582031 151.25 233.96875 150.261719 C 233.359375 149.277344 232.617188 148.402344 231.746094 147.632812 C 230.875 146.867188 229.914062 146.242188 228.859375 145.757812 L 223.523438 143.28125 L 227.871094 139.324219 C 239.578125 128.65625 246.148438 116.785156 247.382812 104.03125 L 248.039062 97.101562 L 261.304688 107.058594 C 279.484375 120.6875 281.035156 134.578125 279.148438 143.828125 L 279.007812 144.484375 L 278.664062 145.0625 C 278.21875 145.804688 277.855469 146.585938 277.570312 147.402344 Z M 255.734375 211.085938 C 248.386719 232.582031 235.652344 238.359375 226.269531 239.417969 L 225.597656 239.488281 L 224.941406 239.339844 C 224.101562 239.144531 223.253906 239.042969 222.390625 239.027344 L 215.679688 238.925781 L 215.328125 238.855469 C 213.386719 238.460938 211.480469 237.941406 209.605469 237.296875 C 193.738281 231.832031 185.285156 220.320312 185.800781 204.78125 L 186.011719 198.652344 L 191.476562 201.429688 C 192.875 202.136719 194.351562 202.554688 195.914062 202.683594 C 197.476562 202.808594 199.003906 202.636719 200.496094 202.164062 C 201.609375 201.835938 202.652344 201.355469 203.625 200.722656 C 204.597656 200.089844 205.457031 199.328125 206.203125 198.441406 C 206.953125 197.554688 207.554688 196.578125 208.015625 195.515625 C 208.480469 194.449219 208.777344 193.34375 208.910156 192.191406 L 209.613281 186.359375 L 214.71875 189.261719 C 228.492188 197.121094 241.816406 199.683594 254.304688 196.882812 L 261.101562 195.359375 Z M 103.289062 166.511719 L 98.410156 150.628906 C 91.714844 128.914062 98.621094 116.761719 105.589844 110.390625 L 106.074219 109.945312 L 106.683594 109.6875 C 107.488281 109.339844 108.25 108.917969 108.96875 108.417969 L 114.433594 104.554688 L 114.753906 104.40625 C 116.558594 103.585938 118.40625 102.886719 120.300781 102.304688 C 136.324219 97.363281 149.960938 101.734375 158.664062 114.613281 L 162.097656 119.6875 L 156.050781 120.65625 C 154.503906 120.902344 153.0625 121.433594 151.726562 122.242188 C 150.386719 123.054688 149.25 124.085938 148.3125 125.339844 C 147.605469 126.257812 147.046875 127.261719 146.632812 128.347656 C 146.21875 129.433594 145.972656 130.554688 145.886719 131.710938 C 145.804688 132.871094 145.890625 134.015625 146.144531 135.148438 C 146.398438 136.28125 146.808594 137.355469 147.378906 138.367188 L 150.234375 143.492188 L 144.394531 144.140625 C 128.628906 145.890625 116.34375 151.648438 107.894531 161.25 Z M 204.46875 64.089844 L 205.046875 64.417969 L 205.484375 64.917969 C 206.050781 65.578125 206.683594 66.167969 207.382812 66.691406 L 212.75 70.71875 L 212.992188 70.984375 C 214.328125 72.441406 215.566406 73.980469 216.699219 75.597656 C 226.355469 89.324219 226.410156 103.617188 216.855469 115.863281 L 213.085938 120.695312 L 210.300781 115.230469 C 209.582031 113.839844 208.632812 112.632812 207.441406 111.609375 C 206.253906 110.589844 204.917969 109.828125 203.433594 109.332031 C 202.339844 108.941406 201.210938 108.714844 200.050781 108.65625 C 198.894531 108.597656 197.75 108.707031 196.621094 108.984375 C 195.492188 109.261719 194.429688 109.695312 193.429688 110.285156 C 192.429688 110.875 191.535156 111.597656 190.75 112.453125 L 186.753906 116.777344 L 184.332031 111.40625 C 177.800781 96.960938 168.535156 87.054688 156.789062 81.972656 L 150.398438 79.210938 L 163.972656 69.695312 C 182.554688 56.613281 196.253906 59.425781 204.46875 64.089844 Z M 119.054688 218.75 L 118.78125 218.109375 L 118.703125 217.488281 C 118.625 216.628906 118.457031 215.789062 118.203125 214.964844 L 116.226562 208.527344 L 116.226562 208.175781 C 115.996094 206.203125 115.902344 204.222656 115.941406 202.234375 C 116.191406 185.484375 124.523438 173.871094 139.496094 169.554688 L 145.371094 167.851562 L 144.433594 173.902344 C 144.195312 175.453125 144.253906 176.992188 144.617188 178.515625 C 144.980469 180.042969 145.617188 181.445312 146.527344 182.722656 C 147.179688 183.679688 147.957031 184.523438 148.859375 185.253906 C 149.761719 185.984375 150.75 186.570312 151.820312 187.007812 C 152.894531 187.449219 154.007812 187.726562 155.164062 187.835938 C 156.316406 187.949219 157.464844 187.894531 158.601562 187.671875 L 164.359375 186.539062 L 163.191406 192.269531 C 159.976562 207.785156 161.628906 221.25 168.179688 232.269531 L 171.730469 238.265625 L 155.121094 238.015625 C 132.382812 237.671875 122.964844 227.34375 119.054688 218.75 Z M 119.054688 218.75 " fill-opacity="1" fill-rule="nonzero"/><g clip-path="url(#id3)"><path fill="#fffdfa" d="M 307.964844 115.175781 C 303.328125 103.125 294.257812 91.972656 281.042969 82.035156 L 226.511719 41.175781 C 224.890625 39.953125 223.125 39.003906 221.210938 38.328125 C 210.472656 30.640625 198.664062 27.085938 186.152344 27.742188 C 173.257812 28.421875 159.851562 33.605469 146.300781 43.140625 L 90.605469 82.339844 C 88.9375 83.511719 87.484375 84.90625 86.242188 86.523438 C 64.386719 102.648438 57.988281 127.773438 67.683594 159.238281 L 87.757812 224.355469 C 88.355469 226.308594 89.230469 228.132812 90.386719 229.820312 C 94.5625 242.308594 102.007812 252.140625 112.527344 258.972656 C 123.355469 265.996094 137.238281 269.679688 153.800781 269.898438 L 221.914062 270.921875 L 222.1875 270.921875 C 224.125 270.933594 226.027344 270.671875 227.894531 270.140625 C 241.097656 270.03125 252.71875 265.980469 262.460938 258.089844 C 272.488281 249.957031 280.289062 237.890625 285.640625 222.183594 L 307.667969 157.722656 C 308.324219 155.800781 308.675781 153.828125 308.726562 151.796875 C 312.714844 139.199219 312.457031 126.882812 307.964844 115.175781 Z M 301.125 149.941406 L 300.929688 150.535156 L 300.929688 151.160156 C 300.9375 152.539062 300.71875 153.882812 300.277344 155.195312 L 278.257812 219.671875 C 268.726562 247.558594 251.128906 262.304688 227.371094 262.304688 L 226.675781 262.304688 L 226.082031 262.5 C 224.765625 262.9375 223.410156 263.144531 222.023438 263.125 L 153.917969 262.101562 C 124.40625 261.648438 104.941406 249.449219 97.628906 226.804688 L 97.433594 226.203125 L 97.050781 225.699219 C 96.234375 224.574219 95.621094 223.34375 95.21875 222.011719 L 75.144531 156.933594 C 66.449219 128.742188 72.023438 106.449219 91.308594 92.488281 L 91.808594 92.121094 L 92.175781 91.613281 C 92.988281 90.488281 93.960938 89.523438 95.09375 88.726562 L 150.796875 49.519531 C 164.066406 40.152344 176.949219 35.46875 189.039062 35.46875 C 198.984375 35.46875 208.402344 38.59375 217.074219 44.945312 L 217.582031 45.3125 L 218.175781 45.507812 C 219.488281 45.925781 220.699219 46.550781 221.804688 47.371094 L 276.363281 88.28125 C 299.949219 105.996094 308.523438 127.3125 301.125 149.941406 Z M 301.125 149.941406 " fill-opacity="1" fill-rule="nonzero"/></g><path fill="#31a39b" d="M 171.714844 238.265625 L 155.105469 238.015625 C 132.382812 237.671875 122.964844 227.34375 119.054688 218.75 L 118.78125 218.109375 L 118.703125 217.488281 C 118.625 216.628906 118.457031 215.789062 118.203125 214.964844 L 116.226562 208.527344 L 116.226562 208.175781 C 115.996094 206.203125 115.902344 204.222656 115.941406 202.234375 C 116.191406 185.484375 124.523438 173.871094 139.496094 169.554688 L 145.371094 167.851562 L 144.433594 173.902344 C 144.195312 175.453125 144.253906 176.992188 144.617188 178.515625 C 144.980469 180.042969 145.617188 181.445312 146.527344 182.722656 C 147.179688 183.679688 147.957031 184.523438 148.859375 185.253906 C 149.761719 185.984375 150.75 186.570312 151.820312 187.007812 C 152.894531 187.449219 154.007812 187.726562 155.164062 187.835938 C 156.316406 187.949219 157.464844 187.894531 158.601562 187.671875 L 164.359375 186.539062 L 163.191406 192.269531 C 159.976562 207.785156 161.628906 221.25 168.179688 232.269531 Z M 171.714844 238.265625 " fill-opacity="1" fill-rule="nonzero"/><path fill="#4482fd" d="M 261.101562 195.367188 L 255.734375 211.085938 C 248.386719 232.582031 235.652344 238.359375 226.269531 239.417969 L 225.597656 239.488281 L 224.941406 239.339844 C 224.101562 239.144531 223.253906 239.042969 222.390625 239.027344 L 215.679688 238.925781 L 215.328125 238.855469 C 213.386719 238.460938 211.480469 237.941406 209.605469 237.296875 C 193.738281 231.832031 185.285156 220.320312 185.800781 204.78125 L 186.011719 198.652344 L 191.476562 201.429688 C 192.875 202.136719 194.351562 202.554688 195.914062 202.683594 C 197.476562 202.808594 199.003906 202.636719 200.496094 202.164062 C 201.609375 201.835938 202.652344 201.355469 203.625 200.722656 C 204.597656 200.089844 205.457031 199.328125 206.203125 198.441406 C 206.953125 197.554688 207.554688 196.578125 208.015625 195.515625 C 208.480469 194.449219 208.777344 193.34375 208.910156 192.191406 L 209.613281 186.359375 L 214.71875 189.261719 C 228.492188 197.121094 241.816406 199.683594 254.304688 196.882812 Z M 261.101562 195.367188 " fill-opacity="1" fill-rule="nonzero"/><path fill="#e86826" d="M 279.0625 143.828125 L 278.921875 144.484375 L 278.578125 145.0625 C 278.132812 145.804688 277.769531 146.585938 277.484375 147.402344 L 275.324219 153.75 L 275.152344 154.054688 C 274.175781 155.777344 273.09375 157.433594 271.90625 159.019531 C 264.589844 168.757812 255.429688 173.785156 245.367188 173.785156 C 241.339844 173.746094 237.4375 173.027344 233.660156 171.625 L 227.902344 169.53125 L 232.234375 165.199219 C 233.335938 164.085938 234.1875 162.808594 234.792969 161.359375 C 235.394531 159.914062 235.703125 158.40625 235.714844 156.839844 C 235.746094 155.679688 235.613281 154.542969 235.308594 153.421875 C 235.007812 152.300781 234.550781 151.25 233.9375 150.261719 C 233.328125 149.277344 232.585938 148.402344 231.714844 147.632812 C 230.84375 146.867188 229.882812 146.242188 228.828125 145.757812 L 223.492188 143.28125 L 227.839844 139.324219 C 239.546875 128.65625 246.117188 116.785156 247.351562 104.03125 L 248.007812 97.101562 L 261.273438 107.058594 C 279.398438 120.6875 280.949219 134.59375 279.0625 143.828125 Z M 279.0625 143.828125 " fill-opacity="1" fill-rule="nonzero"/><path fill="#ffbe3f" d="M 148.359375 125.371094 C 147.652344 126.289062 147.09375 127.292969 146.679688 128.378906 C 146.265625 129.460938 146.019531 130.585938 145.933594 131.742188 C 145.851562 132.902344 145.9375 134.046875 146.191406 135.179688 C 146.445312 136.3125 146.855469 137.386719 147.425781 138.398438 L 150.28125 143.523438 L 144.441406 144.171875 C 128.675781 145.921875 116.390625 151.679688 107.941406 161.28125 L 103.328125 166.511719 L 98.410156 150.628906 C 91.714844 128.914062 98.621094 116.761719 105.589844 110.390625 L 106.074219 109.945312 L 106.683594 109.6875 C 107.488281 109.339844 108.25 108.917969 108.96875 108.417969 L 114.433594 104.554688 L 114.753906 104.40625 C 116.558594 103.585938 118.40625 102.886719 120.300781 102.304688 C 136.324219 97.363281 149.960938 101.734375 158.664062 114.613281 L 162.097656 119.6875 L 156.050781 120.65625 C 154.511719 120.914062 153.078125 121.449219 151.746094 122.265625 C 150.417969 123.082031 149.289062 124.117188 148.359375 125.371094 Z M 148.359375 125.371094 " fill-opacity="1" fill-rule="nonzero"/><path fill="#eb5757" d="M 216.855469 115.863281 L 213.085938 120.695312 L 210.300781 115.230469 C 209.582031 113.839844 208.632812 112.632812 207.441406 111.609375 C 206.253906 110.589844 204.917969 109.828125 203.433594 109.332031 C 202.339844 108.941406 201.210938 108.714844 200.050781 108.65625 C 198.894531 108.597656 197.75 108.707031 196.621094 108.984375 C 195.492188 109.261719 194.429688 109.695312 193.429688 110.285156 C 192.429688 110.875 191.535156 111.597656 190.75 112.453125 L 186.753906 116.777344 L 184.332031 111.40625 C 177.800781 96.960938 168.535156 87.054688 156.789062 81.972656 L 150.398438 79.210938 L 163.972656 69.695312 C 182.554688 56.613281 196.253906 59.425781 204.46875 64.089844 L 205.046875 64.417969 L 205.484375 64.917969 C 206.050781 65.578125 206.683594 66.167969 207.382812 66.691406 L 212.75 70.71875 L 212.992188 70.984375 C 214.328125 72.441406 215.566406 73.980469 216.699219 75.597656 C 226.355469 89.324219 226.410156 103.617188 216.855469 115.863281 Z M 216.855469 115.863281 " fill-opacity="1" fill-rule="nonzero"/><g fill="#192a3e" fill-opacity="1"><g transform="translate(6.032492, 298.883002)"><g><path d="M 17.46875 -20.96875 L 17.46875 -16.328125 L 11.875 -16.328125 L 11.875 0 L 6.046875 0 L 6.046875 -16.328125 L 0.5 -16.328125 L 0.5 -20.96875 Z M 17.46875 -20.96875 "/></g></g></g><g fill="#192a3e" fill-opacity="1"><g transform="translate(24.000414, 298.883002)"><g><path d="M 12.640625 -16.84375 C 14.546875 -16.84375 16.054688 -16.203125 17.171875 -14.921875 C 18.296875 -13.640625 18.859375 -11.910156 18.859375 -9.734375 L 18.859375 0 L 13.03125 0 L 13.03125 -8.953125 C 13.03125 -9.898438 12.78125 -10.644531 12.28125 -11.1875 C 11.789062 -11.738281 11.128906 -12.015625 10.296875 -12.015625 C 9.421875 -12.015625 8.734375 -11.738281 8.234375 -11.1875 C 7.742188 -10.644531 7.5 -9.898438 7.5 -8.953125 L 7.5 0 L 1.671875 0 L 1.671875 -22.015625 L 7.5 -22.015625 L 7.5 -14.3125 C 8.007812 -15.0625 8.707031 -15.671875 9.59375 -16.140625 C 10.476562 -16.609375 11.492188 -16.84375 12.640625 -16.84375 Z M 12.640625 -16.84375 "/></g></g></g><g fill="#192a3e" fill-opacity="1"><g transform="translate(44.407684, 298.883002)"><g><path d="M 17.609375 -8.53125 C 17.609375 -8.082031 17.578125 -7.628906 17.515625 -7.171875 L 6.484375 -7.171875 C 6.546875 -6.253906 6.796875 -5.570312 7.234375 -5.125 C 7.679688 -4.6875 8.253906 -4.46875 8.953125 -4.46875 C 9.921875 -4.46875 10.613281 -4.898438 11.03125 -5.765625 L 17.25 -5.765625 C 17 -4.617188 16.5 -3.59375 15.75 -2.6875 C 15.007812 -1.789062 14.070312 -1.082031 12.9375 -0.5625 C 11.8125 -0.0507812 10.5625 0.203125 9.1875 0.203125 C 7.539062 0.203125 6.078125 -0.140625 4.796875 -0.828125 C 3.523438 -1.523438 2.523438 -2.515625 1.796875 -3.796875 C 1.078125 -5.085938 0.71875 -6.609375 0.71875 -8.359375 C 0.71875 -10.109375 1.070312 -11.617188 1.78125 -12.890625 C 2.5 -14.171875 3.492188 -15.15625 4.765625 -15.84375 C 6.046875 -16.539062 7.519531 -16.890625 9.1875 -16.890625 C 10.832031 -16.890625 12.289062 -16.550781 13.5625 -15.875 C 14.832031 -15.207031 15.820312 -14.242188 16.53125 -12.984375 C 17.25 -11.722656 17.609375 -10.238281 17.609375 -8.53125 Z M 11.65625 -10 C 11.65625 -10.707031 11.414062 -11.265625 10.9375 -11.671875 C 10.46875 -12.078125 9.875 -12.28125 9.15625 -12.28125 C 8.445312 -12.28125 7.863281 -12.085938 7.40625 -11.703125 C 6.945312 -11.316406 6.648438 -10.75 6.515625 -10 Z M 11.65625 -10 "/></g></g></g><g fill="#192a3e" fill-opacity="1"><g transform="translate(62.732587, 298.883002)"><g/></g></g><g fill="#192a3e" fill-opacity="1"><g transform="translate(68.414494, 298.883002)"><g><path d="M 17.46875 -20.96875 L 17.46875 -16.328125 L 11.875 -16.328125 L 11.875 0 L 6.046875 0 L 6.046875 -16.328125 L 0.5 -16.328125 L 0.5 -20.96875 Z M 17.46875 -20.96875 "/></g></g></g><g fill="#192a3e" fill-opacity="1"><g transform="translate(86.382416, 298.883002)"><g><path d="M 7.5 -13.75 C 8.15625 -14.695312 8.945312 -15.445312 9.875 -16 C 10.8125 -16.5625 11.8125 -16.84375 12.875 -16.84375 L 12.875 -10.625 L 11.25 -10.625 C 9.976562 -10.625 9.035156 -10.375 8.421875 -9.875 C 7.804688 -9.382812 7.5 -8.519531 7.5 -7.28125 L 7.5 0 L 1.671875 0 L 1.671875 -16.6875 L 7.5 -16.6875 Z M 7.5 -13.75 "/></g></g></g><g fill="#192a3e" fill-opacity="1"><g transform="translate(99.679865, 298.883002)"><g><path d="M 17.609375 -8.53125 C 17.609375 -8.082031 17.578125 -7.628906 17.515625 -7.171875 L 6.484375 -7.171875 C 6.546875 -6.253906 6.796875 -5.570312 7.234375 -5.125 C 7.679688 -4.6875 8.253906 -4.46875 8.953125 -4.46875 C 9.921875 -4.46875 10.613281 -4.898438 11.03125 -5.765625 L 17.25 -5.765625 C 17 -4.617188 16.5 -3.59375 15.75 -2.6875 C 15.007812 -1.789062 14.070312 -1.082031 12.9375 -0.5625 C 11.8125 -0.0507812 10.5625 0.203125 9.1875 0.203125 C 7.539062 0.203125 6.078125 -0.140625 4.796875 -0.828125 C 3.523438 -1.523438 2.523438 -2.515625 1.796875 -3.796875 C 1.078125 -5.085938 0.71875 -6.609375 0.71875 -8.359375 C 0.71875 -10.109375 1.070312 -11.617188 1.78125 -12.890625 C 2.5 -14.171875 3.492188 -15.15625 4.765625 -15.84375 C 6.046875 -16.539062 7.519531 -16.890625 9.1875 -16.890625 C 10.832031 -16.890625 12.289062 -16.550781 13.5625 -15.875 C 14.832031 -15.207031 15.820312 -14.242188 16.53125 -12.984375 C 17.25 -11.722656 17.609375 -10.238281 17.609375 -8.53125 Z M 11.65625 -10 C 11.65625 -10.707031 11.414062 -11.265625 10.9375 -11.671875 C 10.46875 -12.078125 9.875 -12.28125 9.15625 -12.28125 C 8.445312 -12.28125 7.863281 -12.085938 7.40625 -11.703125 C 6.945312 -11.316406 6.648438 -10.75 6.515625 -10 Z M 11.65625 -10 "/></g></g></g><g fill="#192a3e" fill-opacity="1"><g transform="translate(118.004768, 298.883002)"><g><path d="M 12.578125 -16.84375 C 14.503906 -16.84375 16.03125 -16.203125 17.15625 -14.921875 C 18.289062 -13.640625 18.859375 -11.910156 18.859375 -9.734375 L 18.859375 0 L 13.03125 0 L 13.03125 -8.953125 C 13.03125 -9.898438 12.78125 -10.644531 12.28125 -11.1875 C 11.789062 -11.738281 11.128906 -12.015625 10.296875 -12.015625 C 9.421875 -12.015625 8.734375 -11.738281 8.234375 -11.1875 C 7.742188 -10.644531 7.5 -9.898438 7.5 -8.953125 L 7.5 0 L 1.671875 0 L 1.671875 -16.6875 L 7.5 -16.6875 L 7.5 -14.3125 C 8.007812 -15.0625 8.703125 -15.671875 9.578125 -16.140625 C 10.453125 -16.609375 11.453125 -16.84375 12.578125 -16.84375 Z M 12.578125 -16.84375 "/></g></g></g><g fill="#192a3e" fill-opacity="1"><g transform="translate(138.412038, 298.883002)"><g><path d="M 0.71875 -8.359375 C 0.71875 -10.085938 1.03125 -11.59375 1.65625 -12.875 C 2.28125 -14.164062 3.132812 -15.15625 4.21875 -15.84375 C 5.3125 -16.539062 6.523438 -16.890625 7.859375 -16.890625 C 8.921875 -16.890625 9.875 -16.664062 10.71875 -16.21875 C 11.5625 -15.78125 12.222656 -15.175781 12.703125 -14.40625 L 12.703125 -22.015625 L 18.5625 -22.015625 L 18.5625 0 L 12.703125 0 L 12.703125 -2.328125 C 12.242188 -1.546875 11.597656 -0.925781 10.765625 -0.46875 C 9.929688 -0.0195312 8.953125 0.203125 7.828125 0.203125 C 6.492188 0.203125 5.285156 -0.140625 4.203125 -0.828125 C 3.128906 -1.523438 2.28125 -2.519531 1.65625 -3.8125 C 1.03125 -5.113281 0.71875 -6.628906 0.71875 -8.359375 Z M 12.734375 -8.359375 C 12.734375 -9.429688 12.441406 -10.273438 11.859375 -10.890625 C 11.273438 -11.503906 10.554688 -11.8125 9.703125 -11.8125 C 8.828125 -11.8125 8.097656 -11.507812 7.515625 -10.90625 C 6.941406 -10.300781 6.65625 -9.453125 6.65625 -8.359375 C 6.65625 -7.285156 6.941406 -6.4375 7.515625 -5.8125 C 8.097656 -5.1875 8.828125 -4.875 9.703125 -4.875 C 10.554688 -4.875 11.273438 -5.179688 11.859375 -5.796875 C 12.441406 -6.410156 12.734375 -7.265625 12.734375 -8.359375 Z M 12.734375 -8.359375 "/></g></g></g><g fill="#192a3e" fill-opacity="1"><g transform="translate(158.640835, 298.883002)"><g><path d="M 4.609375 -18.234375 C 3.578125 -18.234375 2.75 -18.515625 2.125 -19.078125 C 1.5 -19.648438 1.1875 -20.363281 1.1875 -21.21875 C 1.1875 -22.082031 1.5 -22.800781 2.125 -23.375 C 2.75 -23.957031 3.578125 -24.25 4.609375 -24.25 C 5.617188 -24.25 6.4375 -23.957031 7.0625 -23.375 C 7.6875 -22.800781 8 -22.082031 8 -21.21875 C 8 -20.363281 7.6875 -19.648438 7.0625 -19.078125 C 6.4375 -18.515625 5.617188 -18.234375 4.609375 -18.234375 Z M 7.5 -16.6875 L 7.5 0 L 1.671875 0 L 1.671875 -16.6875 Z M 7.5 -16.6875 "/></g></g></g><g fill="#192a3e" fill-opacity="1"><g transform="translate(167.803282, 298.883002)"><g><path d="M 12.578125 -16.84375 C 14.503906 -16.84375 16.03125 -16.203125 17.15625 -14.921875 C 18.289062 -13.640625 18.859375 -11.910156 18.859375 -9.734375 L 18.859375 0 L 13.03125 0 L 13.03125 -8.953125 C 13.03125 -9.898438 12.78125 -10.644531 12.28125 -11.1875 C 11.789062 -11.738281 11.128906 -12.015625 10.296875 -12.015625 C 9.421875 -12.015625 8.734375 -11.738281 8.234375 -11.1875 C 7.742188 -10.644531 7.5 -9.898438 7.5 -8.953125 L 7.5 0 L 1.671875 0 L 1.671875 -16.6875 L 7.5 -16.6875 L 7.5 -14.3125 C 8.007812 -15.0625 8.703125 -15.671875 9.578125 -16.140625 C 10.453125 -16.609375 11.453125 -16.84375 12.578125 -16.84375 Z M 12.578125 -16.84375 "/></g></g></g><g fill="#192a3e" fill-opacity="1"><g transform="translate(188.210544, 298.883002)"><g><path d="M 7.828125 -16.890625 C 8.953125 -16.890625 9.9375 -16.660156 10.78125 -16.203125 C 11.625 -15.753906 12.273438 -15.144531 12.734375 -14.375 L 12.734375 -16.6875 L 18.5625 -16.6875 L 18.5625 -0.171875 C 18.5625 1.390625 18.265625 2.800781 17.671875 4.0625 C 17.078125 5.320312 16.148438 6.328125 14.890625 7.078125 C 13.628906 7.835938 12.035156 8.21875 10.109375 8.21875 C 7.535156 8.21875 5.472656 7.609375 3.921875 6.390625 C 2.378906 5.179688 1.5 3.535156 1.28125 1.453125 L 7.015625 1.453125 C 7.140625 1.992188 7.4375 2.410156 7.90625 2.703125 C 8.382812 3.003906 9.003906 3.15625 9.765625 3.15625 C 11.742188 3.15625 12.734375 2.046875 12.734375 -0.171875 L 12.734375 -2.328125 C 12.273438 -1.546875 11.625 -0.925781 10.78125 -0.46875 C 9.9375 -0.0195312 8.953125 0.203125 7.828125 0.203125 C 6.492188 0.203125 5.285156 -0.140625 4.203125 -0.828125 C 3.128906 -1.523438 2.28125 -2.519531 1.65625 -3.8125 C 1.03125 -5.113281 0.71875 -6.628906 0.71875 -8.359375 C 0.71875 -10.085938 1.03125 -11.59375 1.65625 -12.875 C 2.28125 -14.164062 3.128906 -15.15625 4.203125 -15.84375 C 5.285156 -16.539062 6.492188 -16.890625 7.828125 -16.890625 Z M 12.734375 -8.359375 C 12.734375 -9.429688 12.441406 -10.273438 11.859375 -10.890625 C 11.273438 -11.503906 10.554688 -11.8125 9.703125 -11.8125 C 8.828125 -11.8125 8.097656 -11.507812 7.515625 -10.90625 C 6.941406 -10.300781 6.65625 -9.453125 6.65625 -8.359375 C 6.65625 -7.285156 6.941406 -6.4375 7.515625 -5.8125 C 8.097656 -5.1875 8.828125 -4.875 9.703125 -4.875 C 10.554688 -4.875 11.273438 -5.179688 11.859375 -5.796875 C 12.441406 -6.410156 12.734375 -7.265625 12.734375 -8.359375 Z M 12.734375 -8.359375 "/></g></g></g><g fill="#192a3e" fill-opacity="1"><g transform="translate(208.439323, 298.883002)"><g/></g></g><g fill="#192a3e" fill-opacity="1"><g transform="translate(214.12123, 298.883002)"><g><path d="M 20.4375 -20.96875 L 20.4375 0 L 14.609375 0 L 14.609375 -8.421875 L 7.5 -8.421875 L 7.5 0 L 1.671875 0 L 1.671875 -20.96875 L 7.5 -20.96875 L 7.5 -13.09375 L 14.609375 -13.09375 L 14.609375 -20.96875 Z M 20.4375 -20.96875 "/></g></g></g><g fill="#192a3e" fill-opacity="1"><g transform="translate(236.224145, 298.883002)"><g><path d="M 17.609375 -8.53125 C 17.609375 -8.082031 17.578125 -7.628906 17.515625 -7.171875 L 6.484375 -7.171875 C 6.546875 -6.253906 6.796875 -5.570312 7.234375 -5.125 C 7.679688 -4.6875 8.253906 -4.46875 8.953125 -4.46875 C 9.921875 -4.46875 10.613281 -4.898438 11.03125 -5.765625 L 17.25 -5.765625 C 17 -4.617188 16.5 -3.59375 15.75 -2.6875 C 15.007812 -1.789062 14.070312 -1.082031 12.9375 -0.5625 C 11.8125 -0.0507812 10.5625 0.203125 9.1875 0.203125 C 7.539062 0.203125 6.078125 -0.140625 4.796875 -0.828125 C 3.523438 -1.523438 2.523438 -2.515625 1.796875 -3.796875 C 1.078125 -5.085938 0.71875 -6.609375 0.71875 -8.359375 C 0.71875 -10.109375 1.070312 -11.617188 1.78125 -12.890625 C 2.5 -14.171875 3.492188 -15.15625 4.765625 -15.84375 C 6.046875 -16.539062 7.519531 -16.890625 9.1875 -16.890625 C 10.832031 -16.890625 12.289062 -16.550781 13.5625 -15.875 C 14.832031 -15.207031 15.820312 -14.242188 16.53125 -12.984375 C 17.25 -11.722656 17.609375 -10.238281 17.609375 -8.53125 Z M 11.65625 -10 C 11.65625 -10.707031 11.414062 -11.265625 10.9375 -11.671875 C 10.46875 -12.078125 9.875 -12.28125 9.15625 -12.28125 C 8.445312 -12.28125 7.863281 -12.085938 7.40625 -11.703125 C 6.945312 -11.316406 6.648438 -10.75 6.515625 -10 Z M 11.65625 -10 "/></g></g></g><g fill="#192a3e" fill-opacity="1"><g transform="translate(254.549039, 298.883002)"><g><path d="M 0.71875 -8.359375 C 0.71875 -10.085938 1.03125 -11.59375 1.65625 -12.875 C 2.28125 -14.164062 3.128906 -15.15625 4.203125 -15.84375 C 5.285156 -16.539062 6.492188 -16.890625 7.828125 -16.890625 C 8.972656 -16.890625 9.960938 -16.660156 10.796875 -16.203125 C 11.628906 -15.753906 12.273438 -15.144531 12.734375 -14.375 L 12.734375 -16.6875 L 18.5625 -16.6875 L 18.5625 0 L 12.734375 0 L 12.734375 -2.328125 C 12.273438 -1.546875 11.625 -0.925781 10.78125 -0.46875 C 9.9375 -0.0195312 8.953125 0.203125 7.828125 0.203125 C 6.492188 0.203125 5.285156 -0.140625 4.203125 -0.828125 C 3.128906 -1.523438 2.28125 -2.519531 1.65625 -3.8125 C 1.03125 -5.113281 0.71875 -6.628906 0.71875 -8.359375 Z M 12.734375 -8.359375 C 12.734375 -9.429688 12.441406 -10.273438 11.859375 -10.890625 C 11.273438 -11.503906 10.554688 -11.8125 9.703125 -11.8125 C 8.828125 -11.8125 8.097656 -11.507812 7.515625 -10.90625 C 6.941406 -10.300781 6.65625 -9.453125 6.65625 -8.359375 C 6.65625 -7.285156 6.941406 -6.4375 7.515625 -5.8125 C 8.097656 -5.1875 8.828125 -4.875 9.703125 -4.875 C 10.554688 -4.875 11.273438 -5.179688 11.859375 -5.796875 C 12.441406 -6.410156 12.734375 -7.265625 12.734375 -8.359375 Z M 12.734375 -8.359375 "/></g></g></g><g fill="#192a3e" fill-opacity="1"><g transform="translate(274.777818, 298.883002)"><g><path d="M 0.71875 -8.359375 C 0.71875 -10.085938 1.03125 -11.59375 1.65625 -12.875 C 2.28125 -14.164062 3.132812 -15.15625 4.21875 -15.84375 C 5.3125 -16.539062 6.523438 -16.890625 7.859375 -16.890625 C 8.921875 -16.890625 9.875 -16.664062 10.71875 -16.21875 C 11.5625 -15.78125 12.222656 -15.175781 12.703125 -14.40625 L 12.703125 -22.015625 L 18.5625 -22.015625 L 18.5625 0 L 12.703125 0 L 12.703125 -2.328125 C 12.242188 -1.546875 11.597656 -0.925781 10.765625 -0.46875 C 9.929688 -0.0195312 8.953125 0.203125 7.828125 0.203125 C 6.492188 0.203125 5.285156 -0.140625 4.203125 -0.828125 C 3.128906 -1.523438 2.28125 -2.519531 1.65625 -3.8125 C 1.03125 -5.113281 0.71875 -6.628906 0.71875 -8.359375 Z M 12.734375 -8.359375 C 12.734375 -9.429688 12.441406 -10.273438 11.859375 -10.890625 C 11.273438 -11.503906 10.554688 -11.8125 9.703125 -11.8125 C 8.828125 -11.8125 8.097656 -11.507812 7.515625 -10.90625 C 6.941406 -10.300781 6.65625 -9.453125 6.65625 -8.359375 C 6.65625 -7.285156 6.941406 -6.4375 7.515625 -5.8125 C 8.097656 -5.1875 8.828125 -4.875 9.703125 -4.875 C 10.554688 -4.875 11.273438 -5.179688 11.859375 -5.796875 C 12.441406 -6.410156 12.734375 -7.265625 12.734375 -8.359375 Z M 12.734375 -8.359375 "/></g></g></g><g fill="#192a3e" fill-opacity="1"><g transform="translate(295.006598, 298.883002)"><g><path d="M 7.5 -22.015625 L 7.5 0 L 1.671875 0 L 1.671875 -22.015625 Z M 7.5 -22.015625 "/></g></g></g><g fill="#192a3e" fill-opacity="1"><g transform="translate(304.169045, 298.883002)"><g><path d="M 4.609375 -18.234375 C 3.578125 -18.234375 2.75 -18.515625 2.125 -19.078125 C 1.5 -19.648438 1.1875 -20.363281 1.1875 -21.21875 C 1.1875 -22.082031 1.5 -22.800781 2.125 -23.375 C 2.75 -23.957031 3.578125 -24.25 4.609375 -24.25 C 5.617188 -24.25 6.4375 -23.957031 7.0625 -23.375 C 7.6875 -22.800781 8 -22.082031 8 -21.21875 C 8 -20.363281 7.6875 -19.648438 7.0625 -19.078125 C 6.4375 -18.515625 5.617188 -18.234375 4.609375 -18.234375 Z M 7.5 -16.6875 L 7.5 0 L 1.671875 0 L 1.671875 -16.6875 Z M 7.5 -16.6875 "/></g></g></g><g fill="#192a3e" fill-opacity="1"><g transform="translate(313.331492, 298.883002)"><g><path d="M 12.578125 -16.84375 C 14.503906 -16.84375 16.03125 -16.203125 17.15625 -14.921875 C 18.289062 -13.640625 18.859375 -11.910156 18.859375 -9.734375 L 18.859375 0 L 13.03125 0 L 13.03125 -8.953125 C 13.03125 -9.898438 12.78125 -10.644531 12.28125 -11.1875 C 11.789062 -11.738281 11.128906 -12.015625 10.296875 -12.015625 C 9.421875 -12.015625 8.734375 -11.738281 8.234375 -11.1875 C 7.742188 -10.644531 7.5 -9.898438 7.5 -8.953125 L 7.5 0 L 1.671875 0 L 1.671875 -16.6875 L 7.5 -16.6875 L 7.5 -14.3125 C 8.007812 -15.0625 8.703125 -15.671875 9.578125 -16.140625 C 10.453125 -16.609375 11.453125 -16.84375 12.578125 -16.84375 Z M 12.578125 -16.84375 "/></g></g></g><g fill="#192a3e" fill-opacity="1"><g transform="translate(333.738771, 298.883002)"><g><path d="M 17.609375 -8.53125 C 17.609375 -8.082031 17.578125 -7.628906 17.515625 -7.171875 L 6.484375 -7.171875 C 6.546875 -6.253906 6.796875 -5.570312 7.234375 -5.125 C 7.679688 -4.6875 8.253906 -4.46875 8.953125 -4.46875 C 9.921875 -4.46875 10.613281 -4.898438 11.03125 -5.765625 L 17.25 -5.765625 C 17 -4.617188 16.5 -3.59375 15.75 -2.6875 C 15.007812 -1.789062 14.070312 -1.082031 12.9375 -0.5625 C 11.8125 -0.0507812 10.5625 0.203125 9.1875 0.203125 C 7.539062 0.203125 6.078125 -0.140625 4.796875 -0.828125 C 3.523438 -1.523438 2.523438 -2.515625 1.796875 -3.796875 C 1.078125 -5.085938 0.71875 -6.609375 0.71875 -8.359375 C 0.71875 -10.109375 1.070312 -11.617188 1.78125 -12.890625 C 2.5 -14.171875 3.492188 -15.15625 4.765625 -15.84375 C 6.046875 -16.539062 7.519531 -16.890625 9.1875 -16.890625 C 10.832031 -16.890625 12.289062 -16.550781 13.5625 -15.875 C 14.832031 -15.207031 15.820312 -14.242188 16.53125 -12.984375 C 17.25 -11.722656 17.609375 -10.238281 17.609375 -8.53125 Z M 11.65625 -10 C 11.65625 -10.707031 11.414062 -11.265625 10.9375 -11.671875 C 10.46875 -12.078125 9.875 -12.28125 9.15625 -12.28125 C 8.445312 -12.28125 7.863281 -12.085938 7.40625 -11.703125 C 6.945312 -11.316406 6.648438 -10.75 6.515625 -10 Z M 11.65625 -10 "/></g></g></g><g fill="#192a3e" fill-opacity="1"><g transform="translate(352.063665, 298.883002)"><g><path d="M 8.78125 0.203125 C 7.269531 0.203125 5.921875 -0.046875 4.734375 -0.546875 C 3.554688 -1.054688 2.625 -1.75 1.9375 -2.625 C 1.257812 -3.507812 0.878906 -4.507812 0.796875 -5.625 L 6.453125 -5.625 C 6.535156 -5.082031 6.785156 -4.660156 7.203125 -4.359375 C 7.617188 -4.066406 8.132812 -3.921875 8.75 -3.921875 C 9.21875 -3.921875 9.59375 -4.019531 9.875 -4.21875 C 10.15625 -4.414062 10.296875 -4.675781 10.296875 -5 C 10.296875 -5.414062 10.066406 -5.722656 9.609375 -5.921875 C 9.148438 -6.117188 8.394531 -6.335938 7.34375 -6.578125 C 6.15625 -6.816406 5.164062 -7.082031 4.375 -7.375 C 3.582031 -7.675781 2.890625 -8.160156 2.296875 -8.828125 C 1.710938 -9.503906 1.421875 -10.421875 1.421875 -11.578125 C 1.421875 -12.566406 1.6875 -13.460938 2.21875 -14.265625 C 2.757812 -15.066406 3.550781 -15.703125 4.59375 -16.171875 C 5.632812 -16.648438 6.890625 -16.890625 8.359375 -16.890625 C 10.535156 -16.890625 12.25 -16.351562 13.5 -15.28125 C 14.75 -14.21875 15.472656 -12.8125 15.671875 -11.0625 L 10.40625 -11.0625 C 10.3125 -11.601562 10.078125 -12.015625 9.703125 -12.296875 C 9.335938 -12.585938 8.847656 -12.734375 8.234375 -12.734375 C 7.765625 -12.734375 7.40625 -12.644531 7.15625 -12.46875 C 6.90625 -12.289062 6.78125 -12.039062 6.78125 -11.71875 C 6.78125 -11.320312 7.007812 -11.019531 7.46875 -10.8125 C 7.925781 -10.601562 8.660156 -10.390625 9.671875 -10.171875 C 10.878906 -9.910156 11.882812 -9.617188 12.6875 -9.296875 C 13.488281 -8.984375 14.191406 -8.472656 14.796875 -7.765625 C 15.398438 -7.066406 15.703125 -6.113281 15.703125 -4.90625 C 15.703125 -3.9375 15.421875 -3.0625 14.859375 -2.28125 C 14.296875 -1.507812 13.492188 -0.898438 12.453125 -0.453125 C 11.410156 -0.015625 10.1875 0.203125 8.78125 0.203125 Z M 8.78125 0.203125 "/></g></g></g><g fill="#192a3e" fill-opacity="1"><g transform="translate(130.053558, 339.990901)"><g><path d="M 9.4375 0.203125 C 7.769531 0.203125 6.273438 -0.140625 4.953125 -0.828125 C 3.628906 -1.523438 2.59375 -2.515625 1.84375 -3.796875 C 1.09375 -5.085938 0.71875 -6.609375 0.71875 -8.359375 C 0.71875 -10.085938 1.097656 -11.59375 1.859375 -12.875 C 2.617188 -14.164062 3.660156 -15.15625 4.984375 -15.84375 C 6.304688 -16.539062 7.796875 -16.890625 9.453125 -16.890625 C 11.117188 -16.890625 12.613281 -16.539062 13.9375 -15.84375 C 15.257812 -15.15625 16.300781 -14.164062 17.0625 -12.875 C 17.820312 -11.59375 18.203125 -10.085938 18.203125 -8.359375 C 18.203125 -6.628906 17.820312 -5.113281 17.0625 -3.8125 C 16.300781 -2.519531 15.253906 -1.523438 13.921875 -0.828125 C 12.597656 -0.140625 11.101562 0.203125 9.4375 0.203125 Z M 9.4375 -4.84375 C 10.25 -4.84375 10.925781 -5.144531 11.46875 -5.75 C 12.007812 -6.351562 12.28125 -7.222656 12.28125 -8.359375 C 12.28125 -9.492188 12.007812 -10.359375 11.46875 -10.953125 C 10.925781 -11.546875 10.253906 -11.84375 9.453125 -11.84375 C 8.660156 -11.84375 7.992188 -11.546875 7.453125 -10.953125 C 6.921875 -10.359375 6.65625 -9.492188 6.65625 -8.359375 C 6.65625 -7.210938 6.914062 -6.335938 7.4375 -5.734375 C 7.957031 -5.140625 8.625 -4.84375 9.4375 -4.84375 Z M 9.4375 -4.84375 "/></g></g></g><g fill="#192a3e" fill-opacity="1"><g transform="translate(148.973422, 339.990901)"><g><path d="M 10.6875 -11.84375 L 8.0625 -11.84375 L 8.0625 0 L 2.203125 0 L 2.203125 -11.84375 L 0.390625 -11.84375 L 0.390625 -16.6875 L 2.203125 -16.6875 L 2.203125 -16.84375 C 2.203125 -18.976562 2.832031 -20.613281 4.09375 -21.75 C 5.351562 -22.894531 7.160156 -23.46875 9.515625 -23.46875 C 9.992188 -23.46875 10.363281 -23.457031 10.625 -23.4375 L 10.625 -18.46875 C 10.457031 -18.488281 10.238281 -18.5 9.96875 -18.5 C 9.332031 -18.5 8.863281 -18.351562 8.5625 -18.0625 C 8.269531 -17.78125 8.101562 -17.320312 8.0625 -16.6875 L 10.6875 -16.6875 Z M 10.6875 -11.84375 "/></g></g></g><g fill="#192a3e" fill-opacity="1"><g transform="translate(160.069505, 339.990901)"><g/></g></g><g fill="#192a3e" fill-opacity="1"><g transform="translate(165.751411, 339.990901)"><g><path d="M 7.5 -20.96875 L 7.5 0 L 1.671875 0 L 1.671875 -20.96875 Z M 7.5 -20.96875 "/></g></g></g><g fill="#192a3e" fill-opacity="1"><g transform="translate(174.913858, 339.990901)"><g><path d="M 12.578125 -16.84375 C 14.503906 -16.84375 16.03125 -16.203125 17.15625 -14.921875 C 18.289062 -13.640625 18.859375 -11.910156 18.859375 -9.734375 L 18.859375 0 L 13.03125 0 L 13.03125 -8.953125 C 13.03125 -9.898438 12.78125 -10.644531 12.28125 -11.1875 C 11.789062 -11.738281 11.128906 -12.015625 10.296875 -12.015625 C 9.421875 -12.015625 8.734375 -11.738281 8.234375 -11.1875 C 7.742188 -10.644531 7.5 -9.898438 7.5 -8.953125 L 7.5 0 L 1.671875 0 L 1.671875 -16.6875 L 7.5 -16.6875 L 7.5 -14.3125 C 8.007812 -15.0625 8.703125 -15.671875 9.578125 -16.140625 C 10.453125 -16.609375 11.453125 -16.84375 12.578125 -16.84375 Z M 12.578125 -16.84375 "/></g></g></g><g fill="#192a3e" fill-opacity="1"><g transform="translate(195.321128, 339.990901)"><g><path d="M 0.71875 -8.359375 C 0.71875 -10.085938 1.03125 -11.59375 1.65625 -12.875 C 2.28125 -14.164062 3.132812 -15.15625 4.21875 -15.84375 C 5.3125 -16.539062 6.523438 -16.890625 7.859375 -16.890625 C 8.921875 -16.890625 9.875 -16.664062 10.71875 -16.21875 C 11.5625 -15.78125 12.222656 -15.175781 12.703125 -14.40625 L 12.703125 -22.015625 L 18.5625 -22.015625 L 18.5625 0 L 12.703125 0 L 12.703125 -2.328125 C 12.242188 -1.546875 11.597656 -0.925781 10.765625 -0.46875 C 9.929688 -0.0195312 8.953125 0.203125 7.828125 0.203125 C 6.492188 0.203125 5.285156 -0.140625 4.203125 -0.828125 C 3.128906 -1.523438 2.28125 -2.519531 1.65625 -3.8125 C 1.03125 -5.113281 0.71875 -6.628906 0.71875 -8.359375 Z M 12.734375 -8.359375 C 12.734375 -9.429688 12.441406 -10.273438 11.859375 -10.890625 C 11.273438 -11.503906 10.554688 -11.8125 9.703125 -11.8125 C 8.828125 -11.8125 8.097656 -11.507812 7.515625 -10.90625 C 6.941406 -10.300781 6.65625 -9.453125 6.65625 -8.359375 C 6.65625 -7.285156 6.941406 -6.4375 7.515625 -5.8125 C 8.097656 -5.1875 8.828125 -4.875 9.703125 -4.875 C 10.554688 -4.875 11.273438 -5.179688 11.859375 -5.796875 C 12.441406 -6.410156 12.734375 -7.265625 12.734375 -8.359375 Z M 12.734375 -8.359375 "/></g></g></g><g fill="#192a3e" fill-opacity="1"><g transform="translate(215.549917, 339.990901)"><g><path d="M 4.609375 -18.234375 C 3.578125 -18.234375 2.75 -18.515625 2.125 -19.078125 C 1.5 -19.648438 1.1875 -20.363281 1.1875 -21.21875 C 1.1875 -22.082031 1.5 -22.800781 2.125 -23.375 C 2.75 -23.957031 3.578125 -24.25 4.609375 -24.25 C 5.617188 -24.25 6.4375 -23.957031 7.0625 -23.375 C 7.6875 -22.800781 8 -22.082031 8 -21.21875 C 8 -20.363281 7.6875 -19.648438 7.0625 -19.078125 C 6.4375 -18.515625 5.617188 -18.234375 4.609375 -18.234375 Z M 7.5 -16.6875 L 7.5 0 L 1.671875 0 L 1.671875 -16.6875 Z M 7.5 -16.6875 "/></g></g></g><g fill="#192a3e" fill-opacity="1"><g transform="translate(224.712364, 339.990901)"><g><path d="M 0.71875 -8.359375 C 0.71875 -10.085938 1.03125 -11.59375 1.65625 -12.875 C 2.28125 -14.164062 3.128906 -15.15625 4.203125 -15.84375 C 5.285156 -16.539062 6.492188 -16.890625 7.828125 -16.890625 C 8.972656 -16.890625 9.960938 -16.660156 10.796875 -16.203125 C 11.628906 -15.753906 12.273438 -15.144531 12.734375 -14.375 L 12.734375 -16.6875 L 18.5625 -16.6875 L 18.5625 0 L 12.734375 0 L 12.734375 -2.328125 C 12.273438 -1.546875 11.625 -0.925781 10.78125 -0.46875 C 9.9375 -0.0195312 8.953125 0.203125 7.828125 0.203125 C 6.492188 0.203125 5.285156 -0.140625 4.203125 -0.828125 C 3.128906 -1.523438 2.28125 -2.519531 1.65625 -3.8125 C 1.03125 -5.113281 0.71875 -6.628906 0.71875 -8.359375 Z M 12.734375 -8.359375 C 12.734375 -9.429688 12.441406 -10.273438 11.859375 -10.890625 C 11.273438 -11.503906 10.554688 -11.8125 9.703125 -11.8125 C 8.828125 -11.8125 8.097656 -11.507812 7.515625 -10.90625 C 6.941406 -10.300781 6.65625 -9.453125 6.65625 -8.359375 C 6.65625 -7.285156 6.941406 -6.4375 7.515625 -5.8125 C 8.097656 -5.1875 8.828125 -4.875 9.703125 -4.875 C 10.554688 -4.875 11.273438 -5.179688 11.859375 -5.796875 C 12.441406 -6.410156 12.734375 -7.265625 12.734375 -8.359375 Z M 12.734375 -8.359375 "/></g></g></g></svg>